# xmcd CD database file
#
# Track frame offsets:
#	150
#	10932
#	22847
#	37027
#	49902
#	63585
#	77555
#	90785
#	104230
#	117325
#	131827
#	145905
#	161722
#	176592
#	192305
#	205760
#	220300
#	234372
#	248372
#	261390
#	274127
#	288400
#	303335
#	316745
#
# Disc length: 4402 seconds
#
# Revision: 0
# Processed by: cddbd v1.5.2PL0 Copyright (c) Steve Scherf et al.
# Submitted via: CDex 1.51
#
DISCID=56113018
DTITLE=Art Pepper - The Complete Surfride Plus (Disc-1)
DYEAR=1952
DGENRE=Jazz
TTITLE0=Brown Gold
TTITLE1=The Foolish Things
TTITLE2=Surf Ride
TTITLE3=Holiday Flight
TTITLE4=Chili Pepper (Take 1)
TTITLE5=Chili Pepper (Take 2)
TTITLE6=Chili Pepper (Take 3)
TTITLE7=Chili Pepper (Take 4)
TTITLE8=Chili Pepper (Take 5)
TTITLE9=Suzy The Poodle (Take 1)
TTITLE10=Suzy The Poodle (Take 2)
TTITLE11=Suzy The Poodle (Take 3)
TTITLE12=Suzy The Poodle (Take 6)
TTITLE13=Everything Happens to Me (Take 1)
TTITLE14=Everything Happens to Me (Take 2)
TTITLE15=Everything Happens to Me (Take 3)
TTITLE16=Everything Happens to Me (Take 4)
TTITLE17=Everything Happens to Me (Take 6)
TTITLE18=Tickle Toe (Take 4)
TTITLE19=Tickle Toe (Take 9)
TTITLE20=Nutmeg (Take 3)
TTITLE21=Nutmeg (Take 4)
TTITLE22=Nutmeg (Take6)
TTITLE23=Nutmeg (Take 7)
EXTD=YEAR: 1952
EXTT0=
EXTT1=
EXTT2=
EXTT3=
EXTT4=
EXTT5=
EXTT6=
EXTT7=
EXTT8=
EXTT9=
EXTT10=
EXTT11=
EXTT12=
EXTT13=
EXTT14=
EXTT15=
EXTT16=
EXTT17=
EXTT18=
EXTT19=
EXTT20=
EXTT21=
EXTT22=
EXTT23=
PLAYORDER=
